<svg width="289" height="41" viewBox="0 0 289 41" xmlns="http://www.w3.org/2000/svg">
<path d="M45.5391 6.16406V8.17969H37.8867V13.8047H43.5V15.8203H37.8867V21.9492H46.3945V24H35.2734V6.16406H45.5391ZM60.1641 24H57.1758L54.2461 19.5586L53.8477 18.9141L53.5195 19.5938L50.8008 24H47.8594L52.5586 17.2148L47.8242 10.6406H50.7539L53.6836 15.0703L53.9766 15.5625L54.2227 15.0469L57.1641 10.6406H60.0586L55.3125 17.168L60.1641 24ZM68.6602 10.4531C69.6289 10.4531 70.5117 10.6914 71.3086 11.168C72.1055 11.6367 72.7422 12.3516 73.2188 13.3125C73.6953 14.2656 73.9336 15.4375 73.9336 16.8281C73.9336 18.2578 73.6562 19.5312 73.1016 20.6484C72.5469 21.7656 71.7617 22.6367 70.7461 23.2617C69.7383 23.8789 68.5703 24.1875 67.2422 24.1875C66.4453 24.1875 65.7148 24.0742 65.0508 23.8477L65.0859 25.6289V29.9297H62.5078V10.6406H64.8398V12.082C65.2773 11.6211 65.7852 11.2344 66.3633 10.9219C66.9414 10.6094 67.707 10.4531 68.6602 10.4531ZM71.3086 17.0508C71.3086 15.5117 71.0195 14.3672 70.4414 13.6172C69.8711 12.8594 69.0391 12.4805 67.9453 12.4805C67.375 12.4805 66.8477 12.5898 66.3633 12.8086C65.8867 13.0195 65.4609 13.2734 65.0859 13.5703V21.7148C65.3281 21.9258 65.6406 22.0781 66.0234 22.1719C66.4141 22.2656 66.9023 22.3125 67.4883 22.3125C68.2227 22.3125 68.8789 22.1094 69.457 21.7031C70.0352 21.2969 70.4883 20.6992 70.8164 19.9102C71.1445 19.1211 71.3086 18.168 71.3086 17.0508ZM87.0938 15.4922C87.0938 16.125 87.0859 16.6172 87.0703 16.9688C87.0547 17.3125 87.0195 17.6172 86.9648 17.8828H78.7266C78.7344 17.9375 78.7383 18.0156 78.7383 18.1172C78.8711 20.8672 80.2305 22.2422 82.8164 22.2422C83.2852 22.2422 83.8789 22.168 84.5977 22.0195C85.3164 21.8711 85.832 21.7031 86.1445 21.5156L86.6367 22.9922C86.207 23.3438 85.5547 23.6328 84.6797 23.8594C83.8047 24.0781 82.9531 24.1875 82.125 24.1875C80.8672 24.1875 79.7969 23.918 78.9141 23.3789C78.0312 22.832 77.3594 22.043 76.8984 21.0117C76.4375 19.9805 76.207 18.7422 76.207 17.2969C76.207 15.9844 76.4336 14.8164 76.8867 13.793C77.3477 12.7695 78.0234 11.9648 78.9141 11.3789C79.8125 10.7852 80.8984 10.4766 82.1719 10.4531C83.0703 10.4375 83.8867 10.6211 84.6211 11.0039C85.3555 11.3867 85.9414 11.9609 86.3789 12.7266C86.8242 13.4922 87.0625 14.4141 87.0938 15.4922ZM84.6797 16.1719C84.6953 15.9219 84.7031 15.7383 84.7031 15.6211C84.7031 14.6289 84.5 13.8242 84.0938 13.207C83.6953 12.5898 83.0078 12.2812 82.0312 12.2812C81.1641 12.2812 80.4414 12.5898 79.8633 13.207C79.293 13.8164 78.9375 14.8047 78.7969 16.1719H84.6797ZM96.1641 10.4414C96.7891 10.4414 97.2227 10.4961 97.4648 10.6055V13.0195C97.3008 12.9258 97.0859 12.8516 96.8203 12.7969C96.5625 12.7344 96.1914 12.7031 95.707 12.7031C95.1133 12.7031 94.5625 12.8125 94.0547 13.0312C93.5547 13.2422 93.1328 13.5 92.7891 13.8047V24H90.2109V10.6641H92.3789L92.5547 12.1406C92.7266 11.9062 93.0039 11.6562 93.3867 11.3906C93.7773 11.125 94.2188 10.9023 94.7109 10.7227C95.2109 10.5352 95.6953 10.4414 96.1641 10.4414ZM100.523 12.5859H98.7891V11.1914L99.2109 11.0742C99.5703 10.9727 99.8359 10.8906 100.008 10.8281C100.18 10.7578 100.328 10.6641 100.453 10.5469C100.586 10.4219 100.691 10.2539 100.77 10.043C100.887 9.74609 101.059 9.21094 101.285 8.4375L101.543 7.59375H103.09V10.6406H106.863V12.5859H103.09V19.3477C103.09 20.2383 103.125 20.8711 103.195 21.2461C103.266 21.6133 103.395 21.8516 103.582 21.9609C103.777 22.0703 104.105 22.125 104.566 22.125C104.902 22.125 105.309 22.0703 105.785 21.9609C106.27 21.8516 106.625 21.7383 106.852 21.6211L107.297 23.0977C106.914 23.3789 106.363 23.6328 105.645 23.8594C104.934 24.0781 104.254 24.1875 103.605 24.1875C102.629 24.1875 101.871 23.9453 101.332 23.4609C100.793 22.9688 100.523 22.082 100.523 20.8008V12.5859ZM127.406 19.4883H120.105L118.512 24H115.746L122.566 5.97656H125.086L131.742 24H128.918L127.406 19.4883ZM126.75 17.543L124.348 10.4062L123.844 8.74219L123.328 10.4062L120.797 17.543H126.75ZM136.359 10.6641L136.371 12.0703C136.98 11.6562 137.734 11.2812 138.633 10.9453C139.539 10.6094 140.402 10.4414 141.223 10.4414C142.145 10.4414 142.879 10.6133 143.426 10.957C143.973 11.3008 144.371 11.8516 144.621 12.6094C144.871 13.3672 144.996 14.3906 144.996 15.6797V24H142.418V15.668C142.418 14.918 142.359 14.3242 142.242 13.8867C142.125 13.4414 141.91 13.1094 141.598 12.8906C141.285 12.6719 140.832 12.5625 140.238 12.5625C140.098 12.5625 139.992 12.5664 139.922 12.5742C139.453 12.5898 138.914 12.7109 138.305 12.9375C137.703 13.1562 137.148 13.4492 136.641 13.8164V24H134.062V10.6641H136.359ZM153.609 10.4414C154.641 10.4414 155.5 10.5586 156.188 10.793C156.875 11.0273 157.41 11.457 157.793 12.082C158.176 12.6992 158.367 13.5703 158.367 14.6953V24.1875H157.312C156.961 24.1875 156.695 24.1641 156.516 24.1172C156.336 24.0703 156.195 23.9609 156.094 23.7891C155.992 23.6172 155.941 23.3438 155.941 22.9688V22.875C155.551 23.2344 155.012 23.543 154.324 23.8008C153.645 24.0586 152.934 24.1875 152.191 24.1875C151.402 24.1875 150.695 24.0352 150.07 23.7305C149.453 23.4258 148.969 22.9922 148.617 22.4297C148.273 21.8594 148.102 21.1914 148.102 20.4258C148.102 19.582 148.328 18.8516 148.781 18.2344C149.242 17.6172 149.883 17.1406 150.703 16.8047C151.43 16.5156 152.25 16.3008 153.164 16.1602C154.086 16.0117 154.961 15.9375 155.789 15.9375V14.5898C155.789 13.9648 155.688 13.4961 155.484 13.1836C155.289 12.8711 154.992 12.6602 154.594 12.5508C154.195 12.4414 153.645 12.3867 152.941 12.3867C152.566 12.3867 152.133 12.4375 151.641 12.5391C151.156 12.6406 150.699 12.7695 150.27 12.9258C149.848 13.0742 149.535 13.2188 149.332 13.3594L148.699 11.6719C148.902 11.5469 149.27 11.3867 149.801 11.1914C150.34 10.9961 150.949 10.8242 151.629 10.6758C152.316 10.5195 152.977 10.4414 153.609 10.4414ZM152.953 22.2656C153.32 22.2656 153.707 22.2109 154.113 22.1016C154.52 21.9922 154.875 21.8633 155.18 21.7148C155.492 21.5586 155.695 21.4258 155.789 21.3164V17.5781C155.219 17.5781 154.574 17.6328 153.855 17.7422C153.145 17.8516 152.57 18.0117 152.133 18.2227C151.656 18.4492 151.289 18.7148 151.031 19.0195C150.773 19.3242 150.645 19.7188 150.645 20.2031C150.645 21.5781 151.414 22.2656 152.953 22.2656ZM165.152 4.5V24H162.574V4.5H165.152ZM180.27 10.6406L175.77 24.4219C174.77 27.4766 173.371 29.2578 171.574 29.7656C171.395 29.8125 171.184 29.8516 170.941 29.8828C170.699 29.9219 170.488 29.9414 170.309 29.9414C170.105 29.9414 169.852 29.9219 169.547 29.8828C169.242 29.8516 169.059 29.8164 168.996 29.7773V27.6797C169.113 27.7188 169.289 27.75 169.523 27.7734C169.766 27.7969 169.965 27.8086 170.121 27.8086C170.512 27.8086 170.922 27.7031 171.352 27.4922C171.789 27.2812 172.211 26.8906 172.617 26.3203C173.023 25.7578 173.344 24.9844 173.578 24H172.816L167.977 10.6406H170.73L173.684 19.6406L174.363 21.8203L174.961 19.6406L177.492 10.6406H180.27ZM182.238 21.3164C182.387 21.418 182.66 21.5469 183.059 21.7031C183.457 21.8516 183.922 21.9844 184.453 22.1016C184.984 22.2188 185.512 22.2773 186.035 22.2773C186.801 22.2773 187.387 22.1328 187.793 21.8438C188.207 21.5547 188.414 21.1523 188.414 20.6367C188.414 20.1445 188.18 19.7227 187.711 19.3711C187.25 19.0195 186.566 18.6523 185.66 18.2695C184.48 17.7695 183.562 17.1836 182.906 16.5117C182.258 15.8398 181.934 14.9922 181.934 13.9688C181.934 13.2109 182.145 12.5703 182.566 12.0469C182.996 11.5156 183.574 11.1172 184.301 10.8516C185.027 10.5859 185.848 10.4531 186.762 10.4531C187.48 10.4531 188.156 10.5312 188.789 10.6875C189.422 10.8438 189.875 10.9961 190.148 11.1445L189.727 13.0898C189.508 12.9023 189.121 12.7344 188.566 12.5859C188.012 12.4297 187.438 12.3516 186.844 12.3516C186.023 12.3516 185.395 12.4844 184.957 12.75C184.527 13.0156 184.312 13.3789 184.312 13.8398C184.312 14.2305 184.41 14.5664 184.605 14.8477C184.809 15.1289 185.094 15.375 185.461 15.5859C185.828 15.7969 186.309 16.0234 186.902 16.2656C188.043 16.7266 188.98 17.2852 189.715 17.9414C190.449 18.5898 190.816 19.4258 190.816 20.4492C190.816 21.2461 190.625 21.9258 190.242 22.4883C189.867 23.043 189.324 23.4648 188.613 23.7539C187.91 24.043 187.074 24.1875 186.105 24.1875C185.238 24.1875 184.395 24.0898 183.574 23.8945C182.762 23.6992 182.188 23.4805 181.852 23.2383L182.238 21.3164ZM196.84 10.6641V24H194.262V10.6641H196.84ZM193.77 6.63281C193.77 6.30469 193.859 6 194.039 5.71875C194.227 5.4375 194.469 5.21484 194.766 5.05078C195.062 4.88672 195.363 4.80469 195.668 4.80469C196.199 4.80469 196.605 4.95313 196.887 5.25C197.176 5.54687 197.32 5.92578 197.32 6.38672C197.32 6.73047 197.23 7.04297 197.051 7.32422C196.871 7.60547 196.637 7.82422 196.348 7.98047C196.059 8.13672 195.75 8.21484 195.422 8.21484C195.125 8.21484 194.852 8.15234 194.602 8.02734C194.352 7.89453 194.148 7.70703 193.992 7.46484C193.844 7.22266 193.77 6.94531 193.77 6.63281ZM200.801 21.3164C200.949 21.418 201.223 21.5469 201.621 21.7031C202.02 21.8516 202.484 21.9844 203.016 22.1016C203.547 22.2188 204.074 22.2773 204.598 22.2773C205.363 22.2773 205.949 22.1328 206.355 21.8438C206.77 21.5547 206.977 21.1523 206.977 20.6367C206.977 20.1445 206.742 19.7227 206.273 19.3711C205.812 19.0195 205.129 18.6523 204.223 18.2695C203.043 17.7695 202.125 17.1836 201.469 16.5117C200.82 15.8398 200.496 14.9922 200.496 13.9688C200.496 13.2109 200.707 12.5703 201.129 12.0469C201.559 11.5156 202.137 11.1172 202.863 10.8516C203.59 10.5859 204.41 10.4531 205.324 10.4531C206.043 10.4531 206.719 10.5312 207.352 10.6875C207.984 10.8438 208.438 10.9961 208.711 11.1445L208.289 13.0898C208.07 12.9023 207.684 12.7344 207.129 12.5859C206.574 12.4297 206 12.3516 205.406 12.3516C204.586 12.3516 203.957 12.4844 203.52 12.75C203.09 13.0156 202.875 13.3789 202.875 13.8398C202.875 14.2305 202.973 14.5664 203.168 14.8477C203.371 15.1289 203.656 15.375 204.023 15.5859C204.391 15.7969 204.871 16.0234 205.465 16.2656C206.605 16.7266 207.543 17.2852 208.277 17.9414C209.012 18.5898 209.379 19.4258 209.379 20.4492C209.379 21.2461 209.188 21.9258 208.805 22.4883C208.43 23.043 207.887 23.4648 207.176 23.7539C206.473 24.043 205.637 24.1875 204.668 24.1875C203.801 24.1875 202.957 24.0898 202.137 23.8945C201.324 23.6992 200.75 23.4805 200.414 23.2383L200.801 21.3164ZM233.684 15.082V22.8984C233.527 22.9062 233.359 22.9375 233.18 22.9922C233.008 23.0469 232.777 23.1328 232.488 23.25C231.762 23.5312 231.043 23.7578 230.332 23.9297C229.621 24.1016 228.734 24.1875 227.672 24.1875C225.953 24.1875 224.473 23.8008 223.23 23.0273C221.988 22.2539 221.039 21.1875 220.383 19.8281C219.734 18.4609 219.41 16.9102 219.41 15.1758C219.41 13.1992 219.77 11.5195 220.488 10.1367C221.215 8.75391 222.199 7.71484 223.441 7.01953C224.691 6.32422 226.102 5.97656 227.672 5.97656C228.57 5.97656 229.289 6.01562 229.828 6.09375C230.367 6.17188 230.957 6.28906 231.598 6.44531C232.051 6.55469 232.406 6.63281 232.664 6.67969L232.547 9.02344C231.898 8.6875 231.199 8.4375 230.449 8.27344C229.699 8.10156 228.719 8.01562 227.508 8.01562C226.469 8.01562 225.539 8.28906 224.719 8.83594C223.906 9.38281 223.27 10.1719 222.809 11.2031C222.348 12.2344 222.117 13.4531 222.117 14.8594C222.117 16.2734 222.32 17.5312 222.727 18.6328C223.133 19.7344 223.75 20.6055 224.578 21.2461C225.406 21.8789 226.426 22.1953 227.637 22.1953C228.332 22.1953 229.012 22.1406 229.676 22.0312C230.348 21.9141 230.844 21.7461 231.164 21.5273V17.1094L227.918 16.957V15.082H233.684ZM242.977 10.4414C243.602 10.4414 244.035 10.4961 244.277 10.6055V13.0195C244.113 12.9258 243.898 12.8516 243.633 12.7969C243.375 12.7344 243.004 12.7031 242.52 12.7031C241.926 12.7031 241.375 12.8125 240.867 13.0312C240.367 13.2422 239.945 13.5 239.602 13.8047V24H237.023V10.6641H239.191L239.367 12.1406C239.539 11.9062 239.816 11.6562 240.199 11.3906C240.59 11.125 241.031 10.9023 241.523 10.7227C242.023 10.5352 242.508 10.4414 242.977 10.4414ZM245.789 17.2031C245.789 15.7734 246.051 14.5547 246.574 13.5469C247.098 12.5312 247.82 11.7617 248.742 11.2383C249.664 10.7148 250.711 10.4531 251.883 10.4531C253.234 10.4531 254.348 10.7656 255.223 11.3906C256.098 12.0156 256.738 12.8516 257.145 13.8984C257.551 14.9453 257.754 16.125 257.754 17.4375C257.754 18.8672 257.492 20.0898 256.969 21.1055C256.445 22.1211 255.723 22.8906 254.801 23.4141C253.879 23.9297 252.828 24.1875 251.648 24.1875C250.305 24.1875 249.195 23.875 248.32 23.25C247.445 22.625 246.805 21.7891 246.398 20.7422C245.992 19.6953 245.789 18.5156 245.789 17.2031ZM255.141 17.4844C255.141 16.4844 255.016 15.5977 254.766 14.8242C254.523 14.043 254.148 13.4297 253.641 12.9844C253.133 12.5312 252.496 12.3047 251.73 12.3047C250.645 12.3047 249.816 12.7188 249.246 13.5469C248.684 14.3672 248.402 15.543 248.402 17.0742C248.402 18.0664 248.527 18.9648 248.777 19.7695C249.027 20.5664 249.406 21.1992 249.914 21.668C250.422 22.1289 251.051 22.3594 251.801 22.3594C252.887 22.3594 253.715 21.9336 254.285 21.082C254.855 20.2305 255.141 19.0312 255.141 17.4844ZM271.465 10.6406V24.1875H270.469C270.164 24.1875 269.922 24.1641 269.742 24.1172C269.562 24.0703 269.422 23.9727 269.32 23.8242C269.227 23.6758 269.18 23.4531 269.18 23.1562V22.8281C268.57 23.1953 267.867 23.5156 267.07 23.7891C266.281 24.0547 265.543 24.1875 264.855 24.1875C263.77 24.1875 262.938 23.957 262.359 23.4961C261.781 23.0352 261.391 22.3984 261.188 21.5859C260.984 20.7656 260.883 19.7188 260.883 18.4453V10.6406H263.461V18.4336C263.461 19.5195 263.539 20.3203 263.695 20.8359C263.859 21.3438 264.105 21.6758 264.434 21.832C264.77 21.9883 265.262 22.0664 265.91 22.0664C266.379 22.0664 266.906 21.9648 267.492 21.7617C268.086 21.5586 268.551 21.3477 268.887 21.1289V10.6406H271.465ZM281.637 10.4531C282.605 10.4531 283.488 10.6914 284.285 11.168C285.082 11.6367 285.719 12.3516 286.195 13.3125C286.672 14.2656 286.91 15.4375 286.91 16.8281C286.91 18.2578 286.633 19.5312 286.078 20.6484C285.523 21.7656 284.738 22.6367 283.723 23.2617C282.715 23.8789 281.547 24.1875 280.219 24.1875C279.422 24.1875 278.691 24.0742 278.027 23.8477L278.062 25.6289V29.9297H275.484V10.6406H277.816V12.082C278.254 11.6211 278.762 11.2344 279.34 10.9219C279.918 10.6094 280.684 10.4531 281.637 10.4531ZM284.285 17.0508C284.285 15.5117 283.996 14.3672 283.418 13.6172C282.848 12.8594 282.016 12.4805 280.922 12.4805C280.352 12.4805 279.824 12.5898 279.34 12.8086C278.863 13.0195 278.438 13.2734 278.062 13.5703V21.7148C278.305 21.9258 278.617 22.0781 279 22.1719C279.391 22.2656 279.879 22.3125 280.465 22.3125C281.199 22.3125 281.855 22.1094 282.434 21.7031C283.012 21.2969 283.465 20.6992 283.793 19.9102C284.121 19.1211 284.285 18.168 284.285 17.0508Z" fill="white"/>
<rect y="0.455872" width="2" height="32.1176" fill="white"/>
<rect x="4" y="0.455872" width="4" height="32.1176" fill="white"/>
<rect x="10" y="0.455872" width="7" height="32.1176" fill="white"/>
<rect x="19" y="0.455872" width="12" height="32.1176" fill="white"/>
</svg>
