<?xml version="1.0" standalone="no"?>
<!DOCTYPE svg PUBLIC "-//W3C//DTD SVG 20010904//EN"
 "http://www.w3.org/TR/2001/REC-SVG-20010904/DTD/svg10.dtd">
<svg version="1.0" xmlns="http://www.w3.org/2000/svg"
 width="756.000000pt" height="100.000000pt" viewBox="0 0 756.000000 100.000000"
 preserveAspectRatio="xMidYMid meet">

<g transform="translate(0.000000,100.000000) scale(0.100000,-0.100000)"
fill="#000000" stroke="none">
<path d="M37 963 c-4 -3 -7 -213 -7 -465 l0 -458 45 0 45 0 0 465 0 465 -38 0
c-21 0 -42 -3 -45 -7z"/>
<path d="M150 505 l0 -465 73 0 72 0 -2 462 -3 463 -70 3 -70 3 0 -466z"/>
<path d="M325 962 c-3 -3 -5 -212 -5 -464 l0 -458 103 0 102 0 -2 462 -3 463
-95 1 c-52 1 -97 -1 -100 -4z"/>
<path d="M557 964 c-3 -4 -6 -213 -7 -465 l0 -459 165 0 165 0 0 465 0 465
-158 0 c-87 0 -161 -3 -165 -6z"/>
<path d="M4277 803 c-4 -3 -7 -125 -7 -270 l0 -263 25 0 24 0 3 261 c2 155 -1
264 -6 270 -12 11 -30 12 -39 2z"/>
<path d="M5073 773 c-22 -8 -16 -61 7 -68 26 -8 52 12 48 38 -3 21 -34 37 -55
30z"/>
<path d="M972 758 c-17 -17 -17 -459 0 -476 8 -8 53 -12 135 -12 l123 0 0 25
0 25 -105 0 -105 0 0 95 0 95 91 0 c88 0 90 1 87 23 -3 21 -8 22 -90 25 l-88
3 0 79 0 80 106 0 c104 0 105 0 102 23 -3 21 -7 22 -123 25 -85 2 -124 -1
-133 -10z"/>
<path d="M3171 633 c-102 -276 -128 -352 -123 -358 3 -3 15 -5 28 -5 18 0 26
12 47 68 l25 67 103 0 104 0 24 -67 c20 -58 27 -68 47 -68 12 0 25 4 28 8 3 5
-36 117 -86 250 -88 235 -91 242 -118 242 -26 0 -30 -7 -79 -137z m125 -58
l41 -115 -88 0 -88 0 26 68 c14 37 33 88 41 115 9 26 18 47 21 47 3 0 24 -52
47 -115z"/>
<path d="M5805 749 c-56 -30 -81 -55 -106 -108 -26 -55 -31 -165 -10 -224 18
-52 67 -106 116 -128 70 -32 200 -22 248 19 15 14 17 30 15 121 l-3 106 -95 0
c-88 0 -95 -1 -95 -20 0 -18 8 -20 68 -23 l67 -3 0 -74 c0 -41 -4 -76 -9 -79
-18 -12 -100 -18 -136 -12 -56 11 -110 71 -126 140 -22 102 21 210 97 242 48
20 118 17 164 -6 52 -27 72 -26 68 3 -8 60 -180 90 -263 46z"/>
<path d="M2687 723 c-4 -3 -7 -23 -7 -44 0 -34 -3 -38 -27 -41 -39 -4 -39 -41
-1 -48 l28 -5 3 -134 c3 -132 4 -134 31 -158 34 -29 110 -33 124 -5 16 29 4
41 -35 35 -55 -9 -63 9 -63 149 l0 118 49 0 c48 0 63 10 54 38 -3 7 -23 12
-54 12 l-49 0 0 45 c0 40 -2 45 -23 45 -13 0 -27 -3 -30 -7z"/>
<path d="M1287 633 c-3 -5 19 -44 49 -88 30 -43 54 -83 54 -88 0 -5 -25 -44
-55 -87 -30 -43 -55 -83 -55 -89 0 -6 11 -11 25 -11 21 0 35 14 74 75 l48 76
47 -76 c37 -59 52 -75 71 -75 13 0 26 4 29 8 3 5 -21 47 -54 94 l-59 85 54 81
c30 45 55 86 55 92 0 6 -12 10 -27 8 -22 -2 -36 -17 -68 -70 -22 -37 -42 -67
-45 -67 -3 0 -23 30 -46 67 -31 51 -46 68 -66 70 -14 2 -28 -1 -31 -5z"/>
<path d="M1647 633 c-4 -3 -7 -115 -7 -249 0 -206 2 -243 15 -248 8 -3 22 -3
31 1 13 5 15 21 12 89 -2 46 -1 84 0 84 2 0 15 -9 29 -20 34 -26 107 -27 149
-1 88 54 99 249 18 321 -46 40 -113 42 -168 5 l-36 -24 0 24 c0 18 -6 25 -18
25 -10 0 -22 -3 -25 -7z m216 -75 c12 -16 22 -49 25 -81 11 -134 -65 -200
-154 -132 -34 26 -34 27 -34 106 0 78 1 82 32 110 41 40 101 38 131 -3z"/>
<path d="M2090 617 c-56 -37 -75 -81 -75 -167 1 -135 56 -186 191 -178 78 5
104 18 104 50 0 17 -4 19 -22 13 -45 -14 -145 -17 -167 -5 -13 6 -29 27 -37
45 -26 64 -27 64 109 67 l122 3 3 47 c6 90 -50 148 -144 148 -36 0 -61 -6 -84
-23z m147 -49 c11 -13 23 -35 27 -50 l6 -28 -100 0 c-63 0 -100 4 -100 10 0
20 30 69 47 79 33 19 98 13 120 -11z"/>
<path d="M2410 454 l0 -185 28 3 27 3 3 126 c3 123 3 126 32 158 26 27 36 32
68 29 34 -3 37 -1 37 22 0 22 -5 25 -44 28 -36 3 -48 -1 -72 -24 l-29 -28 0
27 c0 22 -5 27 -25 27 l-25 0 0 -186z"/>
<path d="M3520 455 l0 -185 25 0 25 0 0 126 0 126 34 34 c44 44 94 47 125 8
19 -24 21 -40 21 -161 l0 -134 28 3 c26 3 27 5 30 78 2 41 0 109 -3 150 -6 66
-11 78 -40 107 -27 27 -41 33 -74 33 -43 0 -101 -23 -101 -40 0 -6 -4 -10 -10
-10 -5 0 -10 11 -10 25 0 20 -5 25 -25 25 l-25 0 0 -185z"/>
<path d="M3944 626 c-33 -15 -51 -43 -35 -59 5 -5 21 -2 39 7 32 17 108 21
129 8 13 -8 33 -55 33 -76 0 -9 -22 -15 -65 -19 -107 -10 -155 -47 -155 -120
0 -29 7 -46 29 -68 25 -25 37 -29 84 -29 39 0 61 6 80 20 25 20 25 20 30 0 3
-12 14 -20 26 -20 20 0 21 5 21 145 0 158 -7 188 -51 211 -35 18 -124 18 -165
0z m166 -219 c0 -46 -45 -89 -94 -89 -45 0 -66 16 -66 51 0 50 32 70 108 71
l52 0 0 -33z"/>
<path d="M4390 631 c0 -6 30 -90 66 -187 l66 -176 -26 -58 c-20 -48 -22 -61
-12 -69 23 -19 43 -2 65 52 77 193 159 433 152 440 -5 5 -17 7 -27 5 -14 -2
-32 -39 -71 -148 -50 -139 -52 -144 -63 -115 -6 17 -30 82 -53 145 -39 106
-44 115 -69 118 -16 2 -28 -1 -28 -7z"/>
<path d="M4799 625 c-50 -27 -62 -111 -21 -149 10 -8 43 -26 74 -40 66 -29 82
-51 65 -87 -10 -20 -21 -25 -61 -27 -32 -2 -56 2 -73 13 -28 19 -47 9 -41 -21
5 -27 46 -44 106 -44 88 0 132 37 132 111 0 37 -45 84 -90 94 -65 14 -102 74
-65 105 15 12 85 10 118 -4 25 -12 24 40 -2 54 -28 14 -111 12 -142 -5z"/>
<path d="M5065 628 c-3 -8 -4 -90 -3 -183 l3 -170 28 -3 27 -3 -2 183 c-3 181
-3 183 -26 186 -12 2 -24 -3 -27 -10z"/>
<path d="M5265 628 c-47 -27 -64 -81 -40 -128 12 -23 34 -39 80 -60 75 -34 94
-60 70 -96 -12 -19 -24 -24 -58 -24 -23 0 -55 7 -71 15 -32 17 -50 8 -44 -21
5 -27 46 -44 106 -44 85 0 131 35 132 101 0 48 -17 68 -97 109 -50 26 -69 41
-71 58 -7 49 29 60 132 41 27 -6 31 16 7 40 -16 16 -34 21 -73 21 -29 0 -62
-6 -73 -12z"/>
<path d="M6175 628 c-3 -8 -4 -90 -3 -183 l3 -170 25 0 25 0 5 127 c5 124 6
127 35 158 26 28 35 31 68 26 37 -6 38 -6 35 21 -3 25 -7 28 -45 31 -35 3 -48
-2 -68 -22 -32 -32 -35 -32 -32 -4 1 17 -4 24 -21 26 -12 2 -24 -3 -27 -10z"/>
<path d="M6495 621 c-60 -37 -85 -88 -85 -175 1 -66 30 -130 72 -156 42 -26
129 -27 178 -2 106 53 113 261 11 329 -44 30 -132 32 -176 4z m154 -59 c53
-52 49 -178 -6 -221 -28 -23 -91 -28 -124 -11 -65 35 -66 212 -2 249 10 6 37
11 61 11 34 0 49 -6 71 -28z"/>
<path d="M6830 500 c0 -151 8 -183 52 -214 37 -26 111 -21 147 10 l31 26 0
-27 c0 -23 4 -26 28 -23 15 2 26 6 25 11 -2 4 -3 86 -3 182 l0 175 -25 0 -25
0 0 -129 0 -129 -34 -30 c-49 -42 -73 -48 -104 -25 -35 26 -40 47 -41 191 l-1
122 -25 0 -25 0 0 -140z"/>
<path d="M7227 633 c-4 -3 -7 -116 -7 -249 0 -234 1 -243 20 -249 34 -11 40 3
40 91 l0 85 26 -20 c57 -45 163 -18 201 51 28 51 25 191 -4 239 -41 65 -128
80 -196 34 l-37 -26 0 26 c0 18 -5 25 -18 25 -10 0 -22 -3 -25 -7z m208 -60
c25 -25 35 -59 35 -121 0 -66 -25 -117 -65 -132 -29 -11 -48 -6 -92 27 -32 24
-33 25 -33 103 0 76 1 80 33 109 37 36 94 42 122 14z"/>
</g>
</svg>
